<mxfile host="Electron" modified="2024-02-10T18:45:43.532Z" agent="Mozilla/5.0 (Windows NT 10.0; Win64; x64) AppleWebKit/537.36 (KHTML, like Gecko) draw.io/22.1.21 Chrome/120.0.6099.109 Electron/28.1.0 Safari/537.36" etag="J2HYuMK96XA5hFV5kNR_" version="22.1.21" type="device">
  <diagram name="PÃ¡gina-1" id="VdWuHbo52YuAZu9TAlEL">
    <mxGraphModel dx="1078" dy="1683" grid="1" gridSize="10" guides="1" tooltips="1" connect="1" arrows="1" fold="1" page="1" pageScale="1" pageWidth="827" pageHeight="1169" math="0" shadow="0">
      <root>
        <mxCell id="0" />
        <mxCell id="1" parent="0" />
        <mxCell id="dVnhOIemTX8xib7h_-0L-27" value="CMD_PX_GO" style="text;html=1;align=center;verticalAlign=middle;resizable=0;points=[];autosize=1;strokeColor=none;fillColor=none;container=0;" parent="1" vertex="1">
          <mxGeometry x="280" y="111.08724832214764" width="100" height="30" as="geometry" />
        </mxCell>
        <mxCell id="dVnhOIemTX8xib7h_-0L-28" value="/" style="text;html=1;align=center;verticalAlign=middle;resizable=0;points=[];autosize=1;strokeColor=none;fillColor=none;fontStyle=1;container=0;" parent="1" vertex="1">
          <mxGeometry x="570" y="81.08926174496644" width="30" height="30" as="geometry" />
        </mxCell>
        <mxCell id="dVnhOIemTX8xib7h_-0L-3" value="CMD_PROCESS" style="whiteSpace=wrap;html=1;container=0;" parent="1" vertex="1">
          <mxGeometry x="430" y="78.39" width="140" height="198.52" as="geometry" />
        </mxCell>
        <mxCell id="dVnhOIemTX8xib7h_-0L-4" value="" style="edgeStyle=none;orthogonalLoop=1;jettySize=auto;html=1;rounded=0;" parent="1" edge="1">
          <mxGeometry width="100" relative="1" as="geometry">
            <mxPoint x="380" y="97.07382550335569" as="sourcePoint" />
            <mxPoint x="430" y="97.07382550335569" as="targetPoint" />
            <Array as="points" />
          </mxGeometry>
        </mxCell>
        <mxCell id="dVnhOIemTX8xib7h_-0L-5" value="" style="edgeStyle=none;orthogonalLoop=1;jettySize=auto;html=1;rounded=0;" parent="1" edge="1">
          <mxGeometry width="100" relative="1" as="geometry">
            <mxPoint x="380" y="132.10738255033556" as="sourcePoint" />
            <mxPoint x="430" y="132.10738255033556" as="targetPoint" />
            <Array as="points" />
          </mxGeometry>
        </mxCell>
        <mxCell id="dVnhOIemTX8xib7h_-0L-6" value="" style="edgeStyle=none;orthogonalLoop=1;jettySize=auto;html=1;rounded=0;" parent="1" edge="1">
          <mxGeometry width="100" relative="1" as="geometry">
            <mxPoint x="380" y="167.14093959731545" as="sourcePoint" />
            <mxPoint x="430" y="166.33516778523492" as="targetPoint" />
            <Array as="points" />
          </mxGeometry>
        </mxCell>
        <mxCell id="dVnhOIemTX8xib7h_-0L-7" value="/" style="text;html=1;align=center;verticalAlign=middle;resizable=0;points=[];autosize=1;strokeColor=none;fillColor=none;fontStyle=1;container=0;" parent="1" vertex="1">
          <mxGeometry x="381" y="81.99704697986576" width="30" height="30" as="geometry" />
        </mxCell>
        <mxCell id="dVnhOIemTX8xib7h_-0L-8" value="8" style="text;html=1;align=center;verticalAlign=middle;resizable=0;points=[];autosize=1;strokeColor=none;fillColor=none;container=0;" parent="1" vertex="1">
          <mxGeometry x="380" y="66.71140939597315" width="30" height="30" as="geometry" />
        </mxCell>
        <mxCell id="dVnhOIemTX8xib7h_-0L-9" value="CHAR" style="text;html=1;align=center;verticalAlign=middle;resizable=0;points=[];autosize=1;strokeColor=none;fillColor=none;container=0;" parent="1" vertex="1">
          <mxGeometry x="320" y="79.55704697986576" width="60" height="30" as="geometry" />
        </mxCell>
        <mxCell id="dVnhOIemTX8xib7h_-0L-10" value="NONO_Init_Done" style="text;html=1;align=center;verticalAlign=middle;resizable=0;points=[];autosize=1;strokeColor=none;fillColor=none;container=0;" parent="1" vertex="1">
          <mxGeometry x="260" y="148.45637583892616" width="120" height="30" as="geometry" />
        </mxCell>
        <mxCell id="dVnhOIemTX8xib7h_-0L-11" value="" style="edgeStyle=none;orthogonalLoop=1;jettySize=auto;html=1;rounded=0;" parent="1" edge="1">
          <mxGeometry width="100" relative="1" as="geometry">
            <mxPoint x="380" y="206.8456375838926" as="sourcePoint" />
            <mxPoint x="430" y="206.0398657718121" as="targetPoint" />
            <Array as="points" />
          </mxGeometry>
        </mxCell>
        <mxCell id="dVnhOIemTX8xib7h_-0L-12" value="DONE_CMD" style="text;html=1;align=center;verticalAlign=middle;resizable=0;points=[];autosize=1;strokeColor=none;fillColor=none;container=0;" parent="1" vertex="1">
          <mxGeometry x="289" y="189.99993288590602" width="90" height="30" as="geometry" />
        </mxCell>
        <mxCell id="dVnhOIemTX8xib7h_-0L-13" value="" style="edgeStyle=none;orthogonalLoop=1;jettySize=auto;html=1;rounded=0;" parent="1" edge="1">
          <mxGeometry width="100" relative="1" as="geometry">
            <mxPoint x="570" y="96.79355704697986" as="sourcePoint" />
            <mxPoint x="620" y="96.79355704697986" as="targetPoint" />
            <Array as="points" />
          </mxGeometry>
        </mxCell>
        <mxCell id="dVnhOIemTX8xib7h_-0L-14" value="COMMAND" style="text;html=1;align=center;verticalAlign=middle;resizable=0;points=[];autosize=1;strokeColor=none;fillColor=none;container=0;" parent="1" vertex="1">
          <mxGeometry x="620" y="79.55704697986576" width="90" height="30" as="geometry" />
        </mxCell>
        <mxCell id="dVnhOIemTX8xib7h_-0L-15" value="" style="edgeStyle=none;orthogonalLoop=1;jettySize=auto;html=1;rounded=0;" parent="1" edge="1">
          <mxGeometry width="100" relative="1" as="geometry">
            <mxPoint x="570" y="131.82711409395972" as="sourcePoint" />
            <mxPoint x="620" y="131.82711409395972" as="targetPoint" />
            <Array as="points" />
          </mxGeometry>
        </mxCell>
        <mxCell id="dVnhOIemTX8xib7h_-0L-16" value="" style="edgeStyle=none;orthogonalLoop=1;jettySize=auto;html=1;rounded=0;" parent="1" edge="1">
          <mxGeometry width="100" relative="1" as="geometry">
            <mxPoint x="570" y="264.9546308724832" as="sourcePoint" />
            <mxPoint x="620" y="264.9546308724832" as="targetPoint" />
            <Array as="points" />
          </mxGeometry>
        </mxCell>
        <mxCell id="dVnhOIemTX8xib7h_-0L-17" value="NONO_INI" style="text;html=1;align=center;verticalAlign=middle;resizable=0;points=[];autosize=1;strokeColor=none;fillColor=none;container=0;" parent="1" vertex="1">
          <mxGeometry x="615" y="247.71812080536913" width="80" height="30" as="geometry" />
        </mxCell>
        <mxCell id="dVnhOIemTX8xib7h_-0L-18" value="OUT_CMD" style="text;html=1;align=center;verticalAlign=middle;resizable=0;points=[];autosize=1;strokeColor=none;fillColor=none;container=0;" parent="1" vertex="1">
          <mxGeometry x="620" y="113.4228187919463" width="80" height="30" as="geometry" />
        </mxCell>
        <mxCell id="dVnhOIemTX8xib7h_-0L-19" style="edgeStyle=orthogonalEdgeStyle;rounded=0;orthogonalLoop=1;jettySize=auto;html=1;startArrow=none;startFill=0;endArrow=none;endFill=0;" parent="1" source="dVnhOIemTX8xib7h_-0L-20" edge="1">
          <mxGeometry relative="1" as="geometry">
            <mxPoint x="500" y="336.11201342281873" as="targetPoint" />
          </mxGeometry>
        </mxCell>
        <mxCell id="dVnhOIemTX8xib7h_-0L-20" value="" style="ellipse;whiteSpace=wrap;html=1;container=0;" parent="1" vertex="1">
          <mxGeometry x="495" y="277.72" width="10" height="10.28" as="geometry" />
        </mxCell>
        <mxCell id="dVnhOIemTX8xib7h_-0L-21" value="RESET_L*" style="text;html=1;align=center;verticalAlign=middle;resizable=0;points=[];autosize=1;strokeColor=none;fillColor=none;container=0;" parent="1" vertex="1">
          <mxGeometry x="465" y="333.77644295302014" width="80" height="30" as="geometry" />
        </mxCell>
        <mxCell id="dVnhOIemTX8xib7h_-0L-22" value="" style="triangle;whiteSpace=wrap;html=1;container=0;" parent="1" vertex="1">
          <mxGeometry x="430" y="247.71812080536913" width="20" height="23.355704697986575" as="geometry" />
        </mxCell>
        <mxCell id="dVnhOIemTX8xib7h_-0L-23" value="" style="edgeStyle=none;orthogonalLoop=1;jettySize=auto;html=1;rounded=0;endArrow=none;endFill=0;entryX=0;entryY=0.5;entryDx=0;entryDy=0;" parent="1" target="dVnhOIemTX8xib7h_-0L-22" edge="1">
          <mxGeometry width="100" relative="1" as="geometry">
            <mxPoint x="410" y="300.26845637583887" as="sourcePoint" />
            <mxPoint x="430" y="259.0573154362416" as="targetPoint" />
            <Array as="points">
              <mxPoint x="410" y="260" />
            </Array>
          </mxGeometry>
        </mxCell>
        <mxCell id="dVnhOIemTX8xib7h_-0L-24" value="clk" style="text;html=1;align=center;verticalAlign=middle;resizable=0;points=[];autosize=1;strokeColor=none;fillColor=none;container=0;" parent="1" vertex="1">
          <mxGeometry x="370" y="265.234899328859" width="40" height="30" as="geometry" />
        </mxCell>
        <mxCell id="dVnhOIemTX8xib7h_-0L-25" value="3" style="text;html=1;align=center;verticalAlign=middle;resizable=0;points=[];autosize=1;strokeColor=none;fillColor=none;container=0;" parent="1" vertex="1">
          <mxGeometry x="570" y="66.71355704697986" width="30" height="30" as="geometry" />
        </mxCell>
        <mxCell id="dVnhOIemTX8xib7h_-0L-30" value="" style="edgeStyle=none;orthogonalLoop=1;jettySize=auto;html=1;rounded=0;" parent="1" edge="1">
          <mxGeometry width="100" relative="1" as="geometry">
            <mxPoint x="570" y="166.85711409395972" as="sourcePoint" />
            <mxPoint x="620" y="166.85711409395972" as="targetPoint" />
            <Array as="points" />
          </mxGeometry>
        </mxCell>
        <mxCell id="dVnhOIemTX8xib7h_-0L-31" value="IMG_INI" style="text;html=1;align=center;verticalAlign=middle;resizable=0;points=[];autosize=1;strokeColor=none;fillColor=none;container=0;" parent="1" vertex="1">
          <mxGeometry x="625" y="148.4528187919463" width="70" height="30" as="geometry" />
        </mxCell>
        <mxCell id="dVnhOIemTX8xib7h_-0L-32" value="MOD_UART" style="rounded=1;whiteSpace=wrap;html=1;fillColor=#f8cecc;strokeColor=#b85450;fontStyle=1" parent="1" vertex="1">
          <mxGeometry x="430" y="-157.5" width="140" height="90" as="geometry" />
        </mxCell>
        <mxCell id="dVnhOIemTX8xib7h_-0L-33" value="" style="edgeStyle=none;orthogonalLoop=1;jettySize=auto;html=1;rounded=0;" parent="1" edge="1">
          <mxGeometry width="100" relative="1" as="geometry">
            <mxPoint x="360" y="-133.07" as="sourcePoint" />
            <mxPoint x="430" y="-133.07" as="targetPoint" />
            <Array as="points" />
          </mxGeometry>
        </mxCell>
        <mxCell id="dVnhOIemTX8xib7h_-0L-34" value="RX" style="text;html=1;align=right;verticalAlign=middle;resizable=0;points=[];autosize=1;strokeColor=none;fillColor=none;" parent="1" vertex="1">
          <mxGeometry x="310" y="-152.5" width="40" height="30" as="geometry" />
        </mxCell>
        <mxCell id="dVnhOIemTX8xib7h_-0L-35" value="" style="triangle;whiteSpace=wrap;html=1;" parent="1" vertex="1">
          <mxGeometry x="430" y="-92.5" width="20" height="20" as="geometry" />
        </mxCell>
        <mxCell id="dVnhOIemTX8xib7h_-0L-36" value="" style="edgeStyle=none;orthogonalLoop=1;jettySize=auto;html=1;rounded=0;" parent="1" edge="1">
          <mxGeometry width="100" relative="1" as="geometry">
            <mxPoint x="410" y="-47.5" as="sourcePoint" />
            <mxPoint x="430" y="-82.79000000000002" as="targetPoint" />
            <Array as="points">
              <mxPoint x="410" y="-82.5" />
            </Array>
          </mxGeometry>
        </mxCell>
        <mxCell id="dVnhOIemTX8xib7h_-0L-37" value="clk" style="text;html=1;align=center;verticalAlign=middle;resizable=0;points=[];autosize=1;strokeColor=none;fillColor=none;" parent="1" vertex="1">
          <mxGeometry x="370" y="-77.5" width="40" height="30" as="geometry" />
        </mxCell>
        <mxCell id="dVnhOIemTX8xib7h_-0L-38" value="" style="edgeStyle=none;orthogonalLoop=1;jettySize=auto;html=1;rounded=0;" parent="1" edge="1">
          <mxGeometry width="100" relative="1" as="geometry">
            <mxPoint x="570" y="-130" as="sourcePoint" />
            <mxPoint x="640" y="-130" as="targetPoint" />
            <Array as="points" />
          </mxGeometry>
        </mxCell>
        <mxCell id="dVnhOIemTX8xib7h_-0L-39" value="/" style="text;html=1;align=center;verticalAlign=middle;resizable=0;points=[];autosize=1;strokeColor=none;fillColor=none;fontStyle=0;fontSize=16;" parent="1" vertex="1">
          <mxGeometry x="586" y="-145" width="30" height="30" as="geometry" />
        </mxCell>
        <mxCell id="dVnhOIemTX8xib7h_-0L-40" value="8" style="text;html=1;align=center;verticalAlign=middle;resizable=0;points=[];autosize=1;strokeColor=none;fillColor=none;" parent="1" vertex="1">
          <mxGeometry x="586" y="-160" width="30" height="30" as="geometry" />
        </mxCell>
        <mxCell id="dVnhOIemTX8xib7h_-0L-41" value="CHAR" style="text;html=1;align=left;verticalAlign=middle;resizable=0;points=[];autosize=1;strokeColor=none;fillColor=none;" parent="1" vertex="1">
          <mxGeometry x="650" y="-150" width="60" height="30" as="geometry" />
        </mxCell>
        <mxCell id="dVnhOIemTX8xib7h_-0L-42" value="" style="edgeStyle=none;orthogonalLoop=1;jettySize=auto;html=1;rounded=0;" parent="1" edge="1">
          <mxGeometry width="100" relative="1" as="geometry">
            <mxPoint x="570" y="-97.5" as="sourcePoint" />
            <mxPoint x="640" y="-97.5" as="targetPoint" />
            <Array as="points" />
          </mxGeometry>
        </mxCell>
        <mxCell id="dVnhOIemTX8xib7h_-0L-43" value="CMD_PX_GO" style="text;html=1;align=left;verticalAlign=middle;resizable=0;points=[];autosize=1;strokeColor=none;fillColor=none;" parent="1" vertex="1">
          <mxGeometry x="650" y="-115" width="100" height="30" as="geometry" />
        </mxCell>
        <mxCell id="dVnhOIemTX8xib7h_-0L-44" value="NONO_GRAPHICS" style="whiteSpace=wrap;html=1;" parent="1" vertex="1">
          <mxGeometry x="425.5" y="506.38" width="140" height="270" as="geometry" />
        </mxCell>
        <mxCell id="dVnhOIemTX8xib7h_-0L-48" value="NONO_Init_Done" style="text;html=1;align=left;verticalAlign=middle;resizable=0;points=[];autosize=1;strokeColor=none;fillColor=none;container=0;" parent="1" vertex="1">
          <mxGeometry x="643.5" y="502.38" width="120" height="30" as="geometry" />
        </mxCell>
        <mxCell id="dVnhOIemTX8xib7h_-0L-50" value="" style="edgeStyle=none;orthogonalLoop=1;jettySize=auto;html=1;rounded=0;" parent="1" edge="1">
          <mxGeometry width="100" relative="1" as="geometry">
            <mxPoint x="565.5" y="546.38" as="sourcePoint" />
            <mxPoint x="635.5" y="546.38" as="targetPoint" />
            <Array as="points" />
          </mxGeometry>
        </mxCell>
        <mxCell id="dVnhOIemTX8xib7h_-0L-51" value="" style="edgeStyle=none;orthogonalLoop=1;jettySize=auto;html=1;rounded=0;" parent="1" edge="1">
          <mxGeometry width="100" relative="1" as="geometry">
            <mxPoint x="565.5" y="576.38" as="sourcePoint" />
            <mxPoint x="635.5" y="576.38" as="targetPoint" />
            <Array as="points" />
          </mxGeometry>
        </mxCell>
        <mxCell id="dVnhOIemTX8xib7h_-0L-52" value="" style="edgeStyle=none;orthogonalLoop=1;jettySize=auto;html=1;rounded=0;" parent="1" edge="1">
          <mxGeometry width="100" relative="1" as="geometry">
            <mxPoint x="565.5" y="606.38" as="sourcePoint" />
            <mxPoint x="635.5" y="606.38" as="targetPoint" />
            <Array as="points" />
          </mxGeometry>
        </mxCell>
        <mxCell id="dVnhOIemTX8xib7h_-0L-53" value="" style="edgeStyle=none;orthogonalLoop=1;jettySize=auto;html=1;rounded=0;" parent="1" edge="1">
          <mxGeometry width="100" relative="1" as="geometry">
            <mxPoint x="565.5" y="636.38" as="sourcePoint" />
            <mxPoint x="635.5" y="636.38" as="targetPoint" />
            <Array as="points" />
          </mxGeometry>
        </mxCell>
        <mxCell id="dVnhOIemTX8xib7h_-0L-56" value="" style="edgeStyle=none;orthogonalLoop=1;jettySize=auto;html=1;rounded=0;" parent="1" edge="1">
          <mxGeometry width="100" relative="1" as="geometry">
            <mxPoint x="565.5" y="516.38" as="sourcePoint" />
            <mxPoint x="635.5" y="516.38" as="targetPoint" />
            <Array as="points" />
          </mxGeometry>
        </mxCell>
        <mxCell id="dVnhOIemTX8xib7h_-0L-57" value="DRAW_LINE" style="text;html=1;align=left;verticalAlign=middle;resizable=0;points=[];autosize=1;strokeColor=none;fillColor=none;container=0;" parent="1" vertex="1">
          <mxGeometry x="643.5" y="532.38" width="90" height="30" as="geometry" />
        </mxCell>
        <mxCell id="dVnhOIemTX8xib7h_-0L-58" value="DRAW_CUAD" style="text;html=1;align=left;verticalAlign=middle;resizable=0;points=[];autosize=1;strokeColor=none;fillColor=none;container=0;" parent="1" vertex="1">
          <mxGeometry x="643.5" y="562.38" width="100" height="30" as="geometry" />
        </mxCell>
        <mxCell id="dVnhOIemTX8xib7h_-0L-59" value="DRAW_TRIA" style="text;html=1;align=left;verticalAlign=middle;resizable=0;points=[];autosize=1;strokeColor=none;fillColor=none;container=0;" parent="1" vertex="1">
          <mxGeometry x="643.5" y="592.38" width="90" height="30" as="geometry" />
        </mxCell>
        <mxCell id="dVnhOIemTX8xib7h_-0L-60" value="XCOOR" style="text;html=1;align=left;verticalAlign=middle;resizable=0;points=[];autosize=1;strokeColor=none;fillColor=none;container=0;" parent="1" vertex="1">
          <mxGeometry x="643.5" y="622.38" width="70" height="30" as="geometry" />
        </mxCell>
        <mxCell id="dVnhOIemTX8xib7h_-0L-61" value="" style="edgeStyle=none;orthogonalLoop=1;jettySize=auto;html=1;rounded=0;" parent="1" edge="1">
          <mxGeometry width="100" relative="1" as="geometry">
            <mxPoint x="565.5" y="666.38" as="sourcePoint" />
            <mxPoint x="635.5" y="666.38" as="targetPoint" />
            <Array as="points" />
          </mxGeometry>
        </mxCell>
        <mxCell id="dVnhOIemTX8xib7h_-0L-62" value="YCOOR" style="text;html=1;align=left;verticalAlign=middle;resizable=0;points=[];autosize=1;strokeColor=none;fillColor=none;container=0;" parent="1" vertex="1">
          <mxGeometry x="643.5" y="652.38" width="70" height="30" as="geometry" />
        </mxCell>
        <mxCell id="dVnhOIemTX8xib7h_-0L-69" value="/" style="text;html=1;align=center;verticalAlign=middle;resizable=0;points=[];autosize=1;strokeColor=none;fillColor=none;fontStyle=1;container=0;" parent="1" vertex="1">
          <mxGeometry x="377" y="956.3792617449665" width="30" height="30" as="geometry" />
        </mxCell>
        <mxCell id="dVnhOIemTX8xib7h_-0L-70" value="" style="edgeStyle=none;orthogonalLoop=1;jettySize=auto;html=1;rounded=0;" parent="1" edge="1">
          <mxGeometry width="100" relative="1" as="geometry">
            <mxPoint x="377" y="972.0835570469799" as="sourcePoint" />
            <mxPoint x="427" y="972.0835570469799" as="targetPoint" />
            <Array as="points" />
          </mxGeometry>
        </mxCell>
        <mxCell id="dVnhOIemTX8xib7h_-0L-71" value="COMMAND" style="text;html=1;align=right;verticalAlign=middle;resizable=0;points=[];autosize=1;strokeColor=none;fillColor=none;container=0;" parent="1" vertex="1">
          <mxGeometry x="278" y="956.3770469798658" width="90" height="30" as="geometry" />
        </mxCell>
        <mxCell id="dVnhOIemTX8xib7h_-0L-72" value="" style="edgeStyle=none;orthogonalLoop=1;jettySize=auto;html=1;rounded=0;" parent="1" edge="1">
          <mxGeometry width="100" relative="1" as="geometry">
            <mxPoint x="378" y="999.6471140939597" as="sourcePoint" />
            <mxPoint x="428" y="999.6471140939597" as="targetPoint" />
            <Array as="points" />
          </mxGeometry>
        </mxCell>
        <mxCell id="dVnhOIemTX8xib7h_-0L-73" value="OUT_CMD" style="text;html=1;align=right;verticalAlign=middle;resizable=0;points=[];autosize=1;strokeColor=none;fillColor=none;container=0;" parent="1" vertex="1">
          <mxGeometry x="288" y="984.3828187919463" width="80" height="30" as="geometry" />
        </mxCell>
        <mxCell id="dVnhOIemTX8xib7h_-0L-74" value="3" style="text;html=1;align=center;verticalAlign=middle;resizable=0;points=[];autosize=1;strokeColor=none;fillColor=none;container=0;" parent="1" vertex="1">
          <mxGeometry x="377" y="942.0035570469798" width="30" height="30" as="geometry" />
        </mxCell>
        <mxCell id="dVnhOIemTX8xib7h_-0L-75" value="NONO_CURSOR" style="whiteSpace=wrap;html=1;" parent="1" vertex="1">
          <mxGeometry x="428" y="948.47" width="140" height="161.53" as="geometry" />
        </mxCell>
        <mxCell id="dVnhOIemTX8xib7h_-0L-77" value="/" style="text;html=1;align=center;verticalAlign=middle;resizable=0;points=[];autosize=1;strokeColor=none;fillColor=none;fontStyle=1;container=0;" parent="1" vertex="1">
          <mxGeometry x="374.5" y="504.37926174496647" width="30" height="30" as="geometry" />
        </mxCell>
        <mxCell id="dVnhOIemTX8xib7h_-0L-78" value="" style="edgeStyle=none;orthogonalLoop=1;jettySize=auto;html=1;rounded=0;" parent="1" edge="1">
          <mxGeometry width="100" relative="1" as="geometry">
            <mxPoint x="374.5" y="520.0835570469799" as="sourcePoint" />
            <mxPoint x="424.5" y="520.0835570469799" as="targetPoint" />
            <Array as="points" />
          </mxGeometry>
        </mxCell>
        <mxCell id="dVnhOIemTX8xib7h_-0L-79" value="DONE_DEL" style="text;html=1;align=right;verticalAlign=middle;resizable=0;points=[];autosize=1;strokeColor=none;fillColor=none;container=0;" parent="1" vertex="1">
          <mxGeometry x="275.5" y="504.3770469798658" width="90" height="30" as="geometry" />
        </mxCell>
        <mxCell id="dVnhOIemTX8xib7h_-0L-80" value="" style="edgeStyle=none;orthogonalLoop=1;jettySize=auto;html=1;rounded=0;" parent="1" edge="1">
          <mxGeometry width="100" relative="1" as="geometry">
            <mxPoint x="375.5" y="547.6471140939597" as="sourcePoint" />
            <mxPoint x="425.5" y="547.6471140939597" as="targetPoint" />
            <Array as="points" />
          </mxGeometry>
        </mxCell>
        <mxCell id="dVnhOIemTX8xib7h_-0L-81" value="OUT_CMD" style="text;html=1;align=right;verticalAlign=middle;resizable=0;points=[];autosize=1;strokeColor=none;fillColor=none;container=0;" parent="1" vertex="1">
          <mxGeometry x="285.5" y="532.3828187919463" width="80" height="30" as="geometry" />
        </mxCell>
        <mxCell id="dVnhOIemTX8xib7h_-0L-82" value="3" style="text;html=1;align=center;verticalAlign=middle;resizable=0;points=[];autosize=1;strokeColor=none;fillColor=none;container=0;" parent="1" vertex="1">
          <mxGeometry x="374.5" y="490.00355704697984" width="30" height="30" as="geometry" />
        </mxCell>
        <mxCell id="dVnhOIemTX8xib7h_-0L-83" value="" style="edgeStyle=none;orthogonalLoop=1;jettySize=auto;html=1;rounded=0;" parent="1" edge="1">
          <mxGeometry width="100" relative="1" as="geometry">
            <mxPoint x="565.5" y="696.38" as="sourcePoint" />
            <mxPoint x="635.5" y="696.38" as="targetPoint" />
            <Array as="points" />
          </mxGeometry>
        </mxCell>
        <mxCell id="dVnhOIemTX8xib7h_-0L-84" value="DEL_SCREEN" style="text;html=1;align=left;verticalAlign=middle;resizable=0;points=[];autosize=1;strokeColor=none;fillColor=none;container=0;" parent="1" vertex="1">
          <mxGeometry x="643.5" y="682.38" width="100" height="30" as="geometry" />
        </mxCell>
        <mxCell id="dVnhOIemTX8xib7h_-0L-85" value="" style="edgeStyle=none;orthogonalLoop=1;jettySize=auto;html=1;rounded=0;" parent="1" edge="1">
          <mxGeometry width="100" relative="1" as="geometry">
            <mxPoint x="374.5" y="577.6471140939597" as="sourcePoint" />
            <mxPoint x="424.5" y="577.6471140939597" as="targetPoint" />
            <Array as="points" />
          </mxGeometry>
        </mxCell>
        <mxCell id="dVnhOIemTX8xib7h_-0L-86" value="DONE_DEL" style="text;html=1;align=right;verticalAlign=middle;resizable=0;points=[];autosize=1;strokeColor=none;fillColor=none;container=0;" parent="1" vertex="1">
          <mxGeometry x="274.5" y="562.3828187919463" width="90" height="30" as="geometry" />
        </mxCell>
        <mxCell id="dVnhOIemTX8xib7h_-0L-87" value="" style="edgeStyle=none;orthogonalLoop=1;jettySize=auto;html=1;rounded=0;" parent="1" edge="1">
          <mxGeometry width="100" relative="1" as="geometry">
            <mxPoint x="374.5" y="607.6471140939597" as="sourcePoint" />
            <mxPoint x="424.5" y="607.6471140939597" as="targetPoint" />
            <Array as="points" />
          </mxGeometry>
        </mxCell>
        <mxCell id="dVnhOIemTX8xib7h_-0L-88" value="DONE_FIG" style="text;html=1;align=right;verticalAlign=middle;resizable=0;points=[];autosize=1;strokeColor=none;fillColor=none;container=0;" parent="1" vertex="1">
          <mxGeometry x="284.5" y="592.3828187919463" width="80" height="30" as="geometry" />
        </mxCell>
        <mxCell id="dVnhOIemTX8xib7h_-0L-89" value="/" style="text;html=1;align=center;verticalAlign=middle;resizable=0;points=[];autosize=1;strokeColor=none;fillColor=none;fontStyle=1;container=0;" parent="1" vertex="1">
          <mxGeometry x="375.5" y="636.7592617449665" width="30" height="30" as="geometry" />
        </mxCell>
        <mxCell id="dVnhOIemTX8xib7h_-0L-90" value="" style="edgeStyle=none;orthogonalLoop=1;jettySize=auto;html=1;rounded=0;" parent="1" edge="1">
          <mxGeometry width="100" relative="1" as="geometry">
            <mxPoint x="375.5" y="652.4635570469799" as="sourcePoint" />
            <mxPoint x="425.5" y="652.4635570469799" as="targetPoint" />
            <Array as="points" />
          </mxGeometry>
        </mxCell>
        <mxCell id="dVnhOIemTX8xib7h_-0L-91" value="CURSOR_POSX" style="text;html=1;align=right;verticalAlign=middle;resizable=0;points=[];autosize=1;strokeColor=none;fillColor=none;container=0;" parent="1" vertex="1">
          <mxGeometry x="246.5" y="636.7570469798658" width="120" height="30" as="geometry" />
        </mxCell>
        <mxCell id="dVnhOIemTX8xib7h_-0L-92" value="4" style="text;html=1;align=center;verticalAlign=middle;resizable=0;points=[];autosize=1;strokeColor=none;fillColor=none;container=0;" parent="1" vertex="1">
          <mxGeometry x="375.5" y="622.3835570469798" width="30" height="30" as="geometry" />
        </mxCell>
        <mxCell id="dVnhOIemTX8xib7h_-0L-93" value="/" style="text;html=1;align=center;verticalAlign=middle;resizable=0;points=[];autosize=1;strokeColor=none;fillColor=none;fontStyle=1;container=0;" parent="1" vertex="1">
          <mxGeometry x="376" y="666.7592617449665" width="30" height="30" as="geometry" />
        </mxCell>
        <mxCell id="dVnhOIemTX8xib7h_-0L-94" value="" style="edgeStyle=none;orthogonalLoop=1;jettySize=auto;html=1;rounded=0;" parent="1" edge="1">
          <mxGeometry width="100" relative="1" as="geometry">
            <mxPoint x="376" y="682.4635570469799" as="sourcePoint" />
            <mxPoint x="426" y="682.4635570469799" as="targetPoint" />
            <Array as="points" />
          </mxGeometry>
        </mxCell>
        <mxCell id="dVnhOIemTX8xib7h_-0L-95" value="CURSOR_POSY" style="text;html=1;align=right;verticalAlign=middle;resizable=0;points=[];autosize=1;strokeColor=none;fillColor=none;container=0;" parent="1" vertex="1">
          <mxGeometry x="247" y="666.7570469798658" width="120" height="30" as="geometry" />
        </mxCell>
        <mxCell id="dVnhOIemTX8xib7h_-0L-96" value="4" style="text;html=1;align=center;verticalAlign=middle;resizable=0;points=[];autosize=1;strokeColor=none;fillColor=none;container=0;" parent="1" vertex="1">
          <mxGeometry x="376" y="652.3835570469798" width="30" height="30" as="geometry" />
        </mxCell>
        <mxCell id="dVnhOIemTX8xib7h_-0L-97" value="/" style="text;html=1;align=center;verticalAlign=middle;resizable=0;points=[];autosize=1;strokeColor=none;fillColor=none;fontStyle=1;container=0;" parent="1" vertex="1">
          <mxGeometry x="568" y="954.3792617449665" width="30" height="30" as="geometry" />
        </mxCell>
        <mxCell id="dVnhOIemTX8xib7h_-0L-98" value="" style="edgeStyle=none;orthogonalLoop=1;jettySize=auto;html=1;rounded=0;" parent="1" edge="1">
          <mxGeometry width="100" relative="1" as="geometry">
            <mxPoint x="568" y="970.0835570469799" as="sourcePoint" />
            <mxPoint x="618" y="970.0835570469799" as="targetPoint" />
            <Array as="points" />
          </mxGeometry>
        </mxCell>
        <mxCell id="dVnhOIemTX8xib7h_-0L-99" value="CURSOR_POSX" style="text;html=1;align=left;verticalAlign=middle;resizable=0;points=[];autosize=1;strokeColor=none;fillColor=none;container=0;" parent="1" vertex="1">
          <mxGeometry x="620" y="956.3770469798658" width="120" height="30" as="geometry" />
        </mxCell>
        <mxCell id="dVnhOIemTX8xib7h_-0L-100" value="4" style="text;html=1;align=center;verticalAlign=middle;resizable=0;points=[];autosize=1;strokeColor=none;fillColor=none;container=0;" parent="1" vertex="1">
          <mxGeometry x="568" y="940.0035570469797" width="30" height="30" as="geometry" />
        </mxCell>
        <mxCell id="dVnhOIemTX8xib7h_-0L-101" value="/" style="text;html=1;align=center;verticalAlign=middle;resizable=0;points=[];autosize=1;strokeColor=none;fillColor=none;fontStyle=1;container=0;" parent="1" vertex="1">
          <mxGeometry x="568.5" y="984.3792617449665" width="30" height="30" as="geometry" />
        </mxCell>
        <mxCell id="dVnhOIemTX8xib7h_-0L-102" value="" style="edgeStyle=none;orthogonalLoop=1;jettySize=auto;html=1;rounded=0;" parent="1" edge="1">
          <mxGeometry width="100" relative="1" as="geometry">
            <mxPoint x="568.5" y="1000.0835570469799" as="sourcePoint" />
            <mxPoint x="618.5" y="1000.0835570469799" as="targetPoint" />
            <Array as="points" />
          </mxGeometry>
        </mxCell>
        <mxCell id="dVnhOIemTX8xib7h_-0L-103" value="CURSOR_POSY" style="text;html=1;align=left;verticalAlign=middle;resizable=0;points=[];autosize=1;strokeColor=none;fillColor=none;container=0;" parent="1" vertex="1">
          <mxGeometry x="620.5" y="986.3770469798658" width="120" height="30" as="geometry" />
        </mxCell>
        <mxCell id="dVnhOIemTX8xib7h_-0L-104" value="4" style="text;html=1;align=center;verticalAlign=middle;resizable=0;points=[];autosize=1;strokeColor=none;fillColor=none;container=0;" parent="1" vertex="1">
          <mxGeometry x="568.5" y="970.0035570469797" width="30" height="30" as="geometry" />
        </mxCell>
        <mxCell id="dVnhOIemTX8xib7h_-0L-105" value="" style="edgeStyle=none;orthogonalLoop=1;jettySize=auto;html=1;rounded=0;" parent="1" edge="1">
          <mxGeometry width="100" relative="1" as="geometry">
            <mxPoint x="568.5" y="1031.9971140939597" as="sourcePoint" />
            <mxPoint x="618.5" y="1031.9971140939597" as="targetPoint" />
            <Array as="points" />
          </mxGeometry>
        </mxCell>
        <mxCell id="dVnhOIemTX8xib7h_-0L-107" value="UPDATE_CURSOR" style="text;html=1;align=left;verticalAlign=middle;resizable=0;points=[];autosize=1;strokeColor=none;fillColor=none;container=0;" parent="1" vertex="1">
          <mxGeometry x="620" y="1018.9970469798658" width="130" height="30" as="geometry" />
        </mxCell>
        <mxCell id="dVnhOIemTX8xib7h_-0L-108" value="" style="edgeStyle=none;orthogonalLoop=1;jettySize=auto;html=1;rounded=0;" parent="1" edge="1">
          <mxGeometry width="100" relative="1" as="geometry">
            <mxPoint x="376" y="1031.9971140939597" as="sourcePoint" />
            <mxPoint x="426" y="1031.9971140939597" as="targetPoint" />
            <Array as="points" />
          </mxGeometry>
        </mxCell>
        <mxCell id="dVnhOIemTX8xib7h_-0L-109" value="" style="edgeStyle=none;orthogonalLoop=1;jettySize=auto;html=1;rounded=0;" parent="1" edge="1">
          <mxGeometry width="100" relative="1" as="geometry">
            <mxPoint x="565.5" y="726.38" as="sourcePoint" />
            <mxPoint x="635.5" y="726.38" as="targetPoint" />
            <Array as="points" />
          </mxGeometry>
        </mxCell>
        <mxCell id="dVnhOIemTX8xib7h_-0L-110" value="DONE_UPDATE" style="text;html=1;align=center;verticalAlign=middle;resizable=0;points=[];autosize=1;strokeColor=none;fillColor=none;" parent="1" vertex="1">
          <mxGeometry x="634" y="712.38" width="110" height="30" as="geometry" />
        </mxCell>
        <mxCell id="dVnhOIemTX8xib7h_-0L-111" value="DONE_UPDATE" style="text;html=1;align=center;verticalAlign=middle;resizable=0;points=[];autosize=1;strokeColor=none;fillColor=none;" parent="1" vertex="1">
          <mxGeometry x="266" y="1014.38" width="110" height="30" as="geometry" />
        </mxCell>
        <mxCell id="dVnhOIemTX8xib7h_-0L-112" value="" style="edgeStyle=none;orthogonalLoop=1;jettySize=auto;html=1;rounded=0;" parent="1" edge="1">
          <mxGeometry width="100" relative="1" as="geometry">
            <mxPoint x="568" y="1061.9971140939597" as="sourcePoint" />
            <mxPoint x="618" y="1061.9971140939597" as="targetPoint" />
            <Array as="points" />
          </mxGeometry>
        </mxCell>
        <mxCell id="dVnhOIemTX8xib7h_-0L-113" value="TOGGLE_CURSOR" style="text;html=1;align=left;verticalAlign=middle;resizable=0;points=[];autosize=1;strokeColor=none;fillColor=none;container=0;" parent="1" vertex="1">
          <mxGeometry x="619.5" y="1048.997046979866" width="130" height="30" as="geometry" />
        </mxCell>
        <mxCell id="dVnhOIemTX8xib7h_-0L-114" value="" style="edgeStyle=none;orthogonalLoop=1;jettySize=auto;html=1;rounded=0;" parent="1" edge="1">
          <mxGeometry width="100" relative="1" as="geometry">
            <mxPoint x="376" y="1059.6171140939596" as="sourcePoint" />
            <mxPoint x="426" y="1059.6171140939596" as="targetPoint" />
            <Array as="points" />
          </mxGeometry>
        </mxCell>
        <mxCell id="dVnhOIemTX8xib7h_-0L-115" value="DONE_TOGGLE" style="text;html=1;align=center;verticalAlign=middle;resizable=0;points=[];autosize=1;strokeColor=none;fillColor=none;" parent="1" vertex="1">
          <mxGeometry x="266" y="1042" width="110" height="30" as="geometry" />
        </mxCell>
        <mxCell id="dVnhOIemTX8xib7h_-0L-116" value="" style="edgeStyle=none;orthogonalLoop=1;jettySize=auto;html=1;rounded=0;" parent="1" edge="1">
          <mxGeometry width="100" relative="1" as="geometry">
            <mxPoint x="376.5" y="711.8971140939597" as="sourcePoint" />
            <mxPoint x="426.5" y="711.8971140939597" as="targetPoint" />
            <Array as="points" />
          </mxGeometry>
        </mxCell>
        <mxCell id="dVnhOIemTX8xib7h_-0L-117" value="UPDATE_CURSOR" style="text;html=1;align=left;verticalAlign=middle;resizable=0;points=[];autosize=1;strokeColor=none;fillColor=none;container=0;" parent="1" vertex="1">
          <mxGeometry x="258.5" y="696.7570469798658" width="130" height="30" as="geometry" />
        </mxCell>
        <mxCell id="dVnhOIemTX8xib7h_-0L-118" value="" style="edgeStyle=none;orthogonalLoop=1;jettySize=auto;html=1;rounded=0;" parent="1" edge="1">
          <mxGeometry width="100" relative="1" as="geometry">
            <mxPoint x="565.5" y="756.38" as="sourcePoint" />
            <mxPoint x="635.5" y="756.38" as="targetPoint" />
            <Array as="points" />
          </mxGeometry>
        </mxCell>
        <mxCell id="dVnhOIemTX8xib7h_-0L-119" value="DONE_TOGGLE" style="text;html=1;align=center;verticalAlign=middle;resizable=0;points=[];autosize=1;strokeColor=none;fillColor=none;" parent="1" vertex="1">
          <mxGeometry x="635.5" y="742.38" width="110" height="30" as="geometry" />
        </mxCell>
        <mxCell id="dVnhOIemTX8xib7h_-0L-120" value="TOGGLE_CURSOR" style="text;html=1;align=left;verticalAlign=middle;resizable=0;points=[];autosize=1;strokeColor=none;fillColor=none;container=0;" parent="1" vertex="1">
          <mxGeometry x="255.5" y="726.7570469798658" width="130" height="30" as="geometry" />
        </mxCell>
        <mxCell id="dVnhOIemTX8xib7h_-0L-122" value="" style="edgeStyle=none;orthogonalLoop=1;jettySize=auto;html=1;rounded=0;" parent="1" edge="1">
          <mxGeometry width="100" relative="1" as="geometry">
            <mxPoint x="375.5" y="741.9071140939596" as="sourcePoint" />
            <mxPoint x="425.5" y="741.9071140939596" as="targetPoint" />
            <Array as="points" />
          </mxGeometry>
        </mxCell>
        <mxCell id="dVnhOIemTX8xib7h_-0L-126" style="edgeStyle=orthogonalEdgeStyle;rounded=0;orthogonalLoop=1;jettySize=auto;html=1;startArrow=none;startFill=0;endArrow=none;endFill=0;" parent="1" source="dVnhOIemTX8xib7h_-0L-127" edge="1">
          <mxGeometry relative="1" as="geometry">
            <mxPoint x="495" y="834.7720134228188" as="targetPoint" />
          </mxGeometry>
        </mxCell>
        <mxCell id="dVnhOIemTX8xib7h_-0L-127" value="" style="ellipse;whiteSpace=wrap;html=1;container=0;" parent="1" vertex="1">
          <mxGeometry x="490" y="776.3800000000001" width="10" height="10.28" as="geometry" />
        </mxCell>
        <mxCell id="dVnhOIemTX8xib7h_-0L-128" value="RESET_L*" style="text;html=1;align=center;verticalAlign=middle;resizable=0;points=[];autosize=1;strokeColor=none;fillColor=none;container=0;" parent="1" vertex="1">
          <mxGeometry x="460" y="832.4364429530201" width="80" height="30" as="geometry" />
        </mxCell>
        <mxCell id="dVnhOIemTX8xib7h_-0L-129" style="edgeStyle=orthogonalEdgeStyle;rounded=0;orthogonalLoop=1;jettySize=auto;html=1;startArrow=none;startFill=0;endArrow=none;endFill=0;" parent="1" source="dVnhOIemTX8xib7h_-0L-130" edge="1">
          <mxGeometry relative="1" as="geometry">
            <mxPoint x="495" y="1168.3920134228188" as="targetPoint" />
          </mxGeometry>
        </mxCell>
        <mxCell id="dVnhOIemTX8xib7h_-0L-130" value="" style="ellipse;whiteSpace=wrap;html=1;container=0;" parent="1" vertex="1">
          <mxGeometry x="490" y="1110" width="10" height="10.28" as="geometry" />
        </mxCell>
        <mxCell id="dVnhOIemTX8xib7h_-0L-131" value="RESET_L*" style="text;html=1;align=center;verticalAlign=middle;resizable=0;points=[];autosize=1;strokeColor=none;fillColor=none;container=0;" parent="1" vertex="1">
          <mxGeometry x="460" y="1166.05644295302" width="80" height="30" as="geometry" />
        </mxCell>
        <mxCell id="dVnhOIemTX8xib7h_-0L-135" value="" style="triangle;whiteSpace=wrap;html=1;container=0;" parent="1" vertex="1">
          <mxGeometry x="426" y="751.9981208053691" width="20" height="23.355704697986575" as="geometry" />
        </mxCell>
        <mxCell id="dVnhOIemTX8xib7h_-0L-136" value="" style="edgeStyle=none;orthogonalLoop=1;jettySize=auto;html=1;rounded=0;endArrow=none;endFill=0;entryX=0;entryY=0.5;entryDx=0;entryDy=0;" parent="1" target="dVnhOIemTX8xib7h_-0L-135" edge="1">
          <mxGeometry width="100" relative="1" as="geometry">
            <mxPoint x="406" y="804.5484563758389" as="sourcePoint" />
            <mxPoint x="426" y="763.3373154362416" as="targetPoint" />
            <Array as="points">
              <mxPoint x="406" y="764.28" />
            </Array>
          </mxGeometry>
        </mxCell>
        <mxCell id="dVnhOIemTX8xib7h_-0L-137" value="clk" style="text;html=1;align=center;verticalAlign=middle;resizable=0;points=[];autosize=1;strokeColor=none;fillColor=none;container=0;" parent="1" vertex="1">
          <mxGeometry x="366" y="769.514899328859" width="40" height="30" as="geometry" />
        </mxCell>
        <mxCell id="dVnhOIemTX8xib7h_-0L-140" value="" style="triangle;whiteSpace=wrap;html=1;container=0;" parent="1" vertex="1">
          <mxGeometry x="428" y="1084.9981208053691" width="20" height="23.355704697986575" as="geometry" />
        </mxCell>
        <mxCell id="dVnhOIemTX8xib7h_-0L-141" value="" style="edgeStyle=none;orthogonalLoop=1;jettySize=auto;html=1;rounded=0;endArrow=none;endFill=0;entryX=0;entryY=0.5;entryDx=0;entryDy=0;" parent="1" target="dVnhOIemTX8xib7h_-0L-140" edge="1">
          <mxGeometry width="100" relative="1" as="geometry">
            <mxPoint x="408" y="1137.548456375839" as="sourcePoint" />
            <mxPoint x="428" y="1096.3373154362416" as="targetPoint" />
            <Array as="points">
              <mxPoint x="408" y="1097.28" />
            </Array>
          </mxGeometry>
        </mxCell>
        <mxCell id="dVnhOIemTX8xib7h_-0L-142" value="clk" style="text;html=1;align=center;verticalAlign=middle;resizable=0;points=[];autosize=1;strokeColor=none;fillColor=none;container=0;" parent="1" vertex="1">
          <mxGeometry x="368" y="1102.514899328859" width="40" height="30" as="geometry" />
        </mxCell>
        <mxCell id="dVnhOIemTX8xib7h_-0L-143" style="edgeStyle=orthogonalEdgeStyle;rounded=0;orthogonalLoop=1;jettySize=auto;html=1;startArrow=none;startFill=0;endArrow=none;endFill=0;" parent="1" source="dVnhOIemTX8xib7h_-0L-144" edge="1">
          <mxGeometry relative="1" as="geometry">
            <mxPoint x="500" y="-9.107986577181293" as="targetPoint" />
          </mxGeometry>
        </mxCell>
        <mxCell id="dVnhOIemTX8xib7h_-0L-144" value="" style="ellipse;whiteSpace=wrap;html=1;container=0;" parent="1" vertex="1">
          <mxGeometry x="495" y="-67.5" width="10" height="10.28" as="geometry" />
        </mxCell>
        <mxCell id="dVnhOIemTX8xib7h_-0L-145" value="RESET_L*" style="text;html=1;align=center;verticalAlign=middle;resizable=0;points=[];autosize=1;strokeColor=none;fillColor=none;container=0;" parent="1" vertex="1">
          <mxGeometry x="465" y="-11.44355704697989" width="80" height="30" as="geometry" />
        </mxCell>
        <mxCell id="dVnhOIemTX8xib7h_-0L-146" value="/" style="text;html=1;align=center;verticalAlign=middle;resizable=0;points=[];autosize=1;strokeColor=none;fillColor=none;fontStyle=1;container=0;" parent="1" vertex="1">
          <mxGeometry x="580" y="651.1292617449665" width="30" height="30" as="geometry" />
        </mxCell>
        <mxCell id="dVnhOIemTX8xib7h_-0L-147" value="8" style="text;html=1;align=center;verticalAlign=middle;resizable=0;points=[];autosize=1;strokeColor=none;fillColor=none;container=0;" parent="1" vertex="1">
          <mxGeometry x="580" y="636.7535570469798" width="30" height="30" as="geometry" />
        </mxCell>
        <mxCell id="dVnhOIemTX8xib7h_-0L-148" value="/" style="text;html=1;align=center;verticalAlign=middle;resizable=0;points=[];autosize=1;strokeColor=none;fillColor=none;fontStyle=1;container=0;" parent="1" vertex="1">
          <mxGeometry x="580" y="621.1292617449665" width="30" height="30" as="geometry" />
        </mxCell>
        <mxCell id="dVnhOIemTX8xib7h_-0L-149" value="7" style="text;html=1;align=center;verticalAlign=middle;resizable=0;points=[];autosize=1;strokeColor=none;fillColor=none;container=0;" parent="1" vertex="1">
          <mxGeometry x="580" y="606.7535570469798" width="30" height="30" as="geometry" />
        </mxCell>
      </root>
    </mxGraphModel>
  </diagram>
</mxfile>
